<svg xmlns="http://www.w3.org/2000/svg" xmlns:xlink="http://www.w3.org/1999/xlink" viewBox="0 0 1024 1366">
  <defs>
    <style>
      .cls-1 {
        clip-path: url(#clip-iPad_Pro_12.9in_1);
      }

      .cls-2 {
        fill: rgba(0,255,194,0.19);
      }

      .cls-3 {
        fill: #fff;
      }

      .cls-4 {
        filter: url(#Subtraction_2);
      }
    </style>
    <filter id="Subtraction_2" x="-110.5" y="5.612" width="1245" height="1327.274" filterUnits="userSpaceOnUse">
      <feOffset dy="3" input="SourceAlpha"/>
      <feGaussianBlur stdDeviation="7.5" result="blur"/>
      <feFlood flood-opacity="0.278"/>
      <feComposite operator="in" in2="blur"/>
      <feComposite in="SourceGraphic"/>
    </filter>
    <clipPath id="clip-iPad_Pro_12.9in_1">
      <rect width="1024" height="1366"/>
    </clipPath>
  </defs>
  <g id="iPad_Pro_12.9in_1" data-name="iPad Pro 12.9in – 1" class="cls-1">
    <rect class="cls-3" width="1024" height="1366"/>
    <g class="cls-4" transform="matrix(1, 0, 0, 1, 0, 0)">
      <path id="Subtraction_2-2" data-name="Subtraction 2" class="cls-2" d="M961.219,1282.274a10,10,0,0,1-8.67-5l-56.294-97.505a599.767,599.767,0,0,1-67.984,33.166L750.37,1078a10,10,0,1,0-17.32,10l76.39,132.31c-17.562,6.543-35.623,12.315-53.683,17.156a599.435,599.435,0,0,1-76.3,15.2c-13,1.72-26.252,3.031-39.374,3.9-13.258.874-26.743,1.318-40.078,1.318a600.143,600.143,0,0,1-177.64-26.729c-13.888-4.3-27.792-9.169-41.326-14.475-13.517-5.3-27.013-11.173-40.115-17.455l63.969-110.8a10,10,0,1,0-17.32-10L323,1190.265a602.147,602.147,0,0,1-57.135-33.95L196.049,1277.24a10,10,0,1,1-17.32-10l70.664-122.394c-11.574-8.347-23-17.224-33.956-26.383L170.2,1196.81a21.5,21.5,0,1,1-37.239-21.5l49.8-86.248c-14.039-13.589-27.567-28.024-40.208-42.9-12.669-14.912-24.744-30.62-35.89-46.688-11.193-16.134-21.707-33.007-31.251-50.15C65.8,932.067,56.958,914.137,49.119,896.03a596.467,596.467,0,0,1-45.888-175.5,608.806,608.806,0,0,1,.453-129.51,600.338,600.338,0,0,1,202.836-386.1l-56.555-97.956a21.506,21.506,0,0,1,18.6-32.254A21.5,21.5,0,0,1,187.2,85.461l53.174,92.1c9.854-7.39,20.072-14.57,30.369-21.343L189.214,15a10,10,0,0,1,8.651-15,9.994,9.994,0,0,1,8.67,5l81.117,140.5a600.541,600.541,0,0,1,66.8-35.224l54.267,93.993a10,10,0,0,0,17.32-10l-53.077-91.931c17.528-7.171,35.6-13.574,53.724-19.033C445,77.785,463.822,73.1,482.615,69.368c19.038-3.776,38.507-6.657,57.865-8.563C560.12,58.87,580.146,57.889,600,57.889c18.338,0,36.838.837,54.987,2.487C672.9,62,690.929,64.463,708.582,67.69c17.424,3.184,34.914,7.2,51.984,11.925,16.883,4.678,33.758,10.169,50.156,16.321L754.2,193.842a10,10,0,0,0,8.651,15,10,10,0,0,0,8.67-5l58.015-100.484a599.818,599.818,0,0,1,60.046,28.908L963.035,5.035a10,10,0,0,1,17.321,10L906.922,142.225c12.162,7.253,24.218,15.038,35.831,23.135l46.128-79.9a21.5,21.5,0,1,1,37.239,21.5L977.372,191.4a601.734,601.734,0,0,1,162.239,203.854A596.194,596.194,0,0,1,1196,588.271a608.53,608.53,0,0,1,.031,138.97,600.646,600.646,0,0,1-217.07,395.844l30.154,52.229a21.506,21.506,0,0,1-18.6,32.253,21.492,21.492,0,0,1-18.64-10.753L944.42,1149.25c-10.058,7.065-20.471,13.908-30.948,20.339l56.4,97.684a10,10,0,0,1-8.651,15Z" transform="translate(-88 25.11)"/>
    </g>
  </g>
</svg>
