<svg xmlns="http://www.w3.org/2000/svg" xmlns:xlink="http://www.w3.org/1999/xlink" viewBox="0 0 414 736">
  <defs>
    <style>
      .cls-1 {
        clip-path: url(#clip-iPhone_6_7_8_Plus_1);
      }

      .cls-2 {
        fill: rgba(255,0,187,0.19);
      }

      .cls-3 {
        fill: #fff;
      }

      .cls-4 {
        filter: url(#Subtraction_2);
      }
    </style>
    <filter id="Subtraction_2" x="-72.461" y="73.7" width="558.765" height="593.99" filterUnits="userSpaceOnUse">
      <feOffset dy="3" input="SourceAlpha"/>
      <feGaussianBlur stdDeviation="7.5" result="blur"/>
      <feFlood flood-opacity="0.278"/>
      <feComposite operator="in" in2="blur"/>
      <feComposite in="SourceGraphic"/>
    </filter>
    <clipPath id="clip-iPhone_6_7_8_Plus_1">
      <rect width="414" height="736"/>
    </clipPath>
  </defs>
  <g id="iPhone_6_7_8_Plus_1" data-name="iPhone 6/7/8 Plus – 1" class="cls-1">
    <rect class="cls-3" width="414" height="736"/>
    <g class="cls-4" transform="matrix(1, 0, 0, 1, 0, 0)">
      <path id="Subtraction_2-2" data-name="Subtraction 2" class="cls-2" d="M411.534,548.99a4.3,4.3,0,0,1-3.712-2.142L383.72,505.1a256.8,256.8,0,0,1-29.107,14.2l-33.353-57.768a4.281,4.281,0,1,0-7.415,4.282l32.705,56.647c-7.521,2.8-15.254,5.274-22.985,7.346a257.075,257.075,0,0,1-177.608-16.371L173.348,466a4.282,4.282,0,1,0-7.416-4.281L138.288,509.6a257.99,257.99,0,0,1-24.461-14.537L83.936,546.835a4.281,4.281,0,0,1-7.415-4.281l30.254-52.4c-4.952-3.57-9.843-7.371-14.538-11.3L72.87,512.4a9.205,9.205,0,0,1-15.943-9.205l21.319-36.926a257.414,257.414,0,0,1-57.217-82.644A255.6,255.6,0,0,1,5.441,334.509,259.273,259.273,0,0,1,6.2,225.325a255.752,255.752,0,0,1,45.551-98.308A258.832,258.832,0,0,1,88.418,87.733L64.205,45.794a9.205,9.205,0,1,1,15.944-9.205L102.914,76.02c4.223-3.166,8.6-6.24,13-9.138L81.01,6.422A4.282,4.282,0,0,1,84.713,0a4.3,4.3,0,0,1,3.712,2.141l34.729,60.152a257.246,257.246,0,0,1,28.6-15.08l23.233,40.242a4.281,4.281,0,1,0,7.415-4.281l-22.724-39.36A255.685,255.685,0,0,1,206.626,29.7a258.835,258.835,0,0,1,50.257-4.915A255.962,255.962,0,0,1,347.1,41.073L322.9,82.991a4.282,4.282,0,0,0,3.7,6.423,4.3,4.3,0,0,0,3.712-2.142l24.837-43.021a256.6,256.6,0,0,1,25.708,12.377L412.312,2.156A4.28,4.28,0,0,1,418.16.589a4.281,4.281,0,0,1,1.568,5.848l-31.44,54.455c5.209,3.107,10.37,6.44,15.341,9.905L423.377,36.59A9.205,9.205,0,1,1,439.321,45.8L418.45,81.944a257.9,257.9,0,0,1,69.461,87.277,255.5,255.5,0,0,1,19.138,53.836,259.087,259.087,0,0,1,.052,117A255.89,255.89,0,0,1,458.284,441.14a258.768,258.768,0,0,1-39.152,39.695L432.042,503.2a9.207,9.207,0,0,1-7.963,13.809,9.2,9.2,0,0,1-7.98-4.6l-11.757-20.363c-4.315,3.03-8.774,5.96-13.251,8.708l24.146,41.821a4.282,4.282,0,0,1-3.7,6.423Z" transform="translate(-49.96 93.2)"/>
    </g>
  </g>
</svg>
