<svg xmlns="http://www.w3.org/2000/svg" viewBox="0 0 276.606 265.542">
  <defs>
    <style>
      .cls-1 {
        fill: #02377d;
      }
    </style>
  </defs>
  <g id="like" transform="translate(0 -9.136)">
    <g id="Group_1" data-name="Group 1" transform="translate(0 9.136)">
      <path id="Path_1" data-name="Path 1" class="cls-1" d="M321.157,156.6a37.892,37.892,0,0,0,9.509-25.758,33.643,33.643,0,0,0-33.182-33.2H249.6a43.536,43.536,0,0,1,1.382-4.148,28.926,28.926,0,0,1,1.9-3.8q1.206-2.075,1.727-3.112,3.111-5.875,4.757-9.679a70.637,70.637,0,0,0,3.282-10.374,53.891,53.891,0,0,0,1.642-13.138c0-2.765-.033-5.014-.088-6.742a74.344,74.344,0,0,0-.862-7.781,43.651,43.651,0,0,0-2.077-8.642,40.277,40.277,0,0,0-4.148-7.779,24.237,24.237,0,0,0-6.917-7,37.884,37.884,0,0,0-10.373-4.493,51.629,51.629,0,0,0-14.267-1.815,10.636,10.636,0,0,0-7.779,3.286,30.016,30.016,0,0,0-5.879,8.642,51.444,51.444,0,0,0-3.373,8.991q-.951,3.8-2.159,10.545-1.561,7.264-2.337,10.459A55.293,55.293,0,0,1,201,59.442a26.491,26.491,0,0,1-5.359,8.3q-5.7,5.7-17.461,20.744Q169.71,99.548,160.722,109.4t-13.138,10.2a11.338,11.338,0,0,0-7.433,3.545,10.432,10.432,0,0,0-3.112,7.52V241.483a10.347,10.347,0,0,0,3.284,7.692,11.433,11.433,0,0,0,7.779,3.373q6.05.173,27.315,7.609,13.31,4.488,20.83,6.825t21,5.015a128.454,128.454,0,0,0,24.893,2.681h22.3q23-.345,34.058-13.484,10.024-11.93,8.471-31.292a33.629,33.629,0,0,0,9.335-16.249,35.556,35.556,0,0,0,0-20.222,35.877,35.877,0,0,0,7.431-23.685A41.2,41.2,0,0,0,321.157,156.6Z" transform="translate(-54.06 -9.136)"/>
      <path id="Path_2" data-name="Path 2" class="cls-1" d="M60.854,191.864H11.066a10.633,10.633,0,0,0-7.781,3.286A10.631,10.631,0,0,0,0,202.928V313.575a10.642,10.642,0,0,0,3.286,7.779,10.65,10.65,0,0,0,7.781,3.282H60.854a11.214,11.214,0,0,0,11.063-11.061V202.928a11.219,11.219,0,0,0-11.063-11.064ZM40.972,299.308a10.774,10.774,0,0,1-7.779,3.2,11.063,11.063,0,0,1-7.866-18.842,10.952,10.952,0,0,1,15.645,0,10.954,10.954,0,0,1,0,15.645Z" transform="translate(0 -81.22)"/>
    </g>
  </g>
</svg>
