<svg xmlns="http://www.w3.org/2000/svg" viewBox="0 0 374.106 486.733">
  <defs>
    <style>
      .cls-1 {
        fill: #02377d;
      }
    </style>
  </defs>
  <g id="lock" transform="translate(-56.313)">
    <path id="Path_1" data-name="Path 1" class="cls-1" d="M403.88,196.563H394.4V152.175C394.4,70.076,329.245,1.494,247.814.03c-2.225-.04-6.671-.04-8.9,0C157.486,1.494,92.336,70.076,92.336,152.175v44.388H82.851c-14.616,0-26.538,15.082-26.538,33.709V452.9c0,18.606,11.922,33.829,26.539,33.829H403.88c14.616,0,26.539-15.223,26.539-33.829V230.272C430.419,211.646,418.5,196.563,403.88,196.563Zm-130.438,144.8v67.271a14.361,14.361,0,0,1-14.158,14.222H227.45a14.361,14.361,0,0,1-14.159-14.222V341.362a40.031,40.031,0,0,1-11.83-28.8c0-21.334,16.491-39.666,37.459-40.513,2.222-.09,6.673-.09,8.9,0,20.968.847,37.459,19.179,37.459,40.513A40.041,40.041,0,0,1,273.442,341.362Zm58.444-144.8H154.847V152.175c0-48.9,39.744-89.342,88.519-89.342s88.521,40.437,88.521,89.342v44.388Z"/>
  </g>
</svg>
