<svg xmlns="http://www.w3.org/2000/svg" viewBox="0 0 512.001 512.001">
  <defs>
    <style>
      .cls-1 {
        fill: #02377d;
      }
    </style>
  </defs>
  <path id="support" class="cls-1" d="M437.02,74.98A256,256,0,0,0,74.98,437.021,256,256,0,0,0,437.02,74.98ZM482,256a225.12,225.12,0,0,1-11.906,72.445l-83.465-34.574a136.2,136.2,0,0,0,0-75.742l83.465-34.574A225.121,225.121,0,0,1,482,256ZM458.563,155.859l-83.449,34.566a137,137,0,0,0-53.539-53.539l34.566-83.449A227.511,227.511,0,0,1,458.563,155.86ZM256,362A106,106,0,1,1,362,256,106.119,106.119,0,0,1,256,362ZM328.445,41.906l-34.574,83.465a136.2,136.2,0,0,0-75.742,0L183.555,41.906a226.354,226.354,0,0,1,144.891,0ZM155.859,53.438l34.566,83.449a137,137,0,0,0-53.539,53.539L53.437,155.86A227.511,227.511,0,0,1,155.859,53.438ZM30,256a225.12,225.12,0,0,1,11.906-72.445l83.465,34.574a136.2,136.2,0,0,0,0,75.742L41.907,328.446A225.121,225.121,0,0,1,30,256ZM53.438,356.142l83.449-34.566a137.005,137.005,0,0,0,53.539,53.539L155.86,458.564A227.511,227.511,0,0,1,53.438,356.142ZM183.555,470.095l34.574-83.465a136.2,136.2,0,0,0,75.742,0l34.574,83.465a226.354,226.354,0,0,1-144.891,0Zm172.586-11.531-34.566-83.449a137.005,137.005,0,0,0,53.539-53.539l83.449,34.566A227.51,227.51,0,0,1,356.141,458.564Zm0,0" transform="translate(0.001)"/>
</svg>
