<svg xmlns="http://www.w3.org/2000/svg" viewBox="0 0 368.816 368.822">
  <defs>
    <style>
      .cls-1 {
        fill: #02377d;
      }
    </style>
  </defs>
  <g id="customer-support" transform="translate(-0.375 -0.001)">
    <path id="Path_4" data-name="Path 4" class="cls-1" d="M57.944,71.827a6.585,6.585,0,0,1,3.048,1.727l93.908,93.91,16.992-16.991-93.91-93.91a6.592,6.592,0,0,1-1.728-3.056l-5.91-23.561L31.163,7.547,11.977,26.732,34.383,65.94Zm0,0" transform="translate(-9.098 -5.917)"/>
    <path id="Path_5" data-name="Path 5" class="cls-1" d="M132.352,280.12,281.369,131.1a6.573,6.573,0,0,1,6.24-1.732A65.362,65.362,0,0,0,369.19,65.71c0-1.234-.035-2.476-.117-3.73L334.415,96.635a6.568,6.568,0,0,1-6.721,1.587L288.272,85.08a6.559,6.559,0,0,1-4.157-4.151L270.976,41.507a6.56,6.56,0,0,1,1.586-6.722L307.221.127a65.382,65.382,0,0,0-67.4,81.47A6.567,6.567,0,0,1,238.1,87.84L89.082,236.85a6.631,6.631,0,0,1-6.242,1.731,64.731,64.731,0,0,0-15.882-2.044,66.145,66.145,0,1,0,63.659,49.823A6.579,6.579,0,0,1,132.352,280.12Zm-49.4,48.4H50.971L35.2,302.242l15.773-26.285h31.98L98.72,302.242ZM108.307,251.6,252.852,107.056l9.288,9.291L117.6,260.893Zm0,0" transform="translate(0 0)"/>
    <path id="Path_6" data-name="Path 6" class="cls-1" d="M1459.5,1506.453a39.841,39.841,0,0,0,51.31-51.312Zm0,0" transform="translate(-1144.183 -1141.057)"/>
    <path id="Path_7" data-name="Path 7" class="cls-1" d="M1038.947,978.105l-73.795-73.823a20.5,20.5,0,0,1-28.906-28.87L925.8,864.949l-56.412,56.415L879.9,931.876A20.5,20.5,0,0,1,908.8,960.745l73.73,73.771c.805.805,1.653,1.55,2.512,2.275l56.178-56.178C1040.5,979.754,1039.752,978.908,1038.947,978.105Zm-38.955,26.745-65.7-65.7,9.288-9.29,65.7,65.7Zm0,0" transform="translate(-681.439 -678.255)"/>
  </g>
</svg>
