<svg xmlns="http://www.w3.org/2000/svg" viewBox="0 0 462.703 444.163">
  <defs>
    <style>
      .cls-1 {
        fill: #02377d;
      }
    </style>
  </defs>
  <g id="wallet" transform="translate(0 -17.84)">
    <g id="Group_1" data-name="Group 1" transform="translate(0 17.84)">
      <path id="Path_1" data-name="Path 1" class="cls-1" d="M184.752,102.389,369.21,52.04,359.441,32.3a25.993,25.993,0,0,0-34.813-11.743L159.5,102.389Z" transform="translate(-76.624 -17.84)"/>
      <path id="Path_2" data-name="Path 2" class="cls-1" d="M504.535,86.46a25.97,25.97,0,0,0-6.859.935L454.342,99.242,322,135.354H537.685l-8.106-29.721A25.935,25.935,0,0,0,504.535,86.46Z" transform="translate(-154.689 -50.805)"/>
      <path id="Path_3" data-name="Path 3" class="cls-1" d="M410.067,215.56H26.032a26.013,26.013,0,0,0-25.1,19.173A26.894,26.894,0,0,0,0,241.54V531.008a25.989,25.989,0,0,0,25.98,25.98H410.015A25.989,25.989,0,0,0,436,531.008V458.524H281.83a44.2,44.2,0,0,1-44.166-44.166V356.579a44.1,44.1,0,0,1,44.114-44.114H436V241.54A25.912,25.912,0,0,0,410.067,215.56Z" transform="translate(0 -112.825)"/>
      <path id="Path_4" data-name="Path 4" class="cls-1" d="M690.783,443.567a25.955,25.955,0,0,0-9.093-5.4,26.5,26.5,0,0,0-8.417-1.4H518.38a25.989,25.989,0,0,0-25.98,25.98v57.831a25.989,25.989,0,0,0,25.98,25.98H673.272a26.478,26.478,0,0,0,8.417-1.4,25.2,25.2,0,0,0,9.093-5.4,25.889,25.889,0,0,0,8.469-19.173V462.741A25.889,25.889,0,0,0,690.783,443.567ZM572.626,496.826a13,13,0,0,1-12.99,12.99h-8.625a13,13,0,0,1-12.99-12.99V488.2a12.728,12.728,0,0,1,4.988-10.185,13.126,13.126,0,0,1,8-2.805h8.625a12.994,12.994,0,0,1,12.99,12.99v8.625Z" transform="translate(-236.55 -219.09)"/>
    </g>
  </g>
</svg>
